<svg version="1.2" xmlns="http://www.w3.org/2000/svg" viewBox="0 0 1080 1080" width="120" height="120"><style>.a{fill:#ff66c4}.b{fill:#5ce1e6}.c{fill:#faebd7}</style><path class="a" d="m357 108.1c14.3 0 23.1 0.4 33 1.9 7.4 1 18 2.9 23.5 4.1 5.5 1.2 15.7 4.1 22.8 6.5 7 2.4 17.3 6.4 22.9 8.9 5.7 2.5 14.4 6.9 19.3 9.7 4.9 2.8 13.5 8.2 19 11.9 5.5 3.7 14.3 10.3 19.5 14.7 5.2 4.4 14 12.6 19.5 18.3 5.5 5.7 13 14.2 16.6 18.9 3.7 4.7 9.5 12.8 13 18 3.4 5.2 9.1 14.9 12.5 21.5 3.5 6.6 8 16.5 10.2 22 2.2 5.5 4.9 13.1 6.1 17 1.2 3.9 2.1 7.3 2.1 7.8 0 0.4-3.5 0.6-15.4 0.2l-5.1-13.5c-2.8-7.4-7.7-18.7-10.9-25-3.3-6.3-8.7-15.8-12.1-21-3.4-5.2-9.8-14-14.2-19.5-4.4-5.5-13.2-14.9-19.4-21-6.3-6.1-16.2-14.6-22.1-19-5.8-4.4-15.5-10.9-21.4-14.5-6-3.5-16.3-8.9-22.9-11.8-6.6-3-17.4-7.2-24-9.4-6.6-2.1-18.5-5.2-26.5-6.8-8-1.6-21.3-3.3-29.5-3.9-9.9-0.7-20.1-0.7-30-0.1-8.3 0.5-20.4 1.9-27 3-6.6 1.1-14.5 2.8-17.5 3.6-3 0.9-10.4 3.1-16.5 5.1-6.1 2-15.1 5.3-20 7.5-4.9 2.2-12.4 5.8-16.5 8.1-4.1 2.2-11.3 6.5-16 9.5-4.7 3-12.8 8.9-18 13-5.2 4.1-14.9 12.9-21.5 19.6-6.6 6.7-15.6 16.9-20 22.7-4.4 5.9-10.9 15.6-14.5 21.5-3.5 6-8.8 16.1-11.6 22.4-2.9 6.3-6.8 16.2-8.7 22-1.9 5.8-4.4 14.3-5.6 19-1.1 4.7-2.7 12.6-3.6 17.5-0.9 4.9-2 16-2.7 24.5-0.8 11.5-0.8 19.3 0.1 30 0.6 8 1.8 18.6 2.7 23.5 0.8 4.9 2.6 13.3 3.9 18.5 1.3 5.2 4 14.2 6 20 2 5.8 6.5 16.4 9.9 23.5 3.4 7.1 8.6 16.8 11.5 21.5 2.9 4.7 8.5 12.8 12.5 18 3.9 5.2 12 14.6 18.1 20.9 6.1 6.2 15.3 14.8 20.5 19 5.3 4.2 11 8.7 12.8 10.1 3.2 2.5 3.2 2.6 3.2 11.3 0 4.8-0.3 8.7-0.8 8.7-0.4 0-4.1-2.3-8.2-5.1-4.1-2.8-10.2-7.2-13.5-9.8-3.3-2.5-11.4-9.8-17.9-16.1-6.5-6.3-16-16.5-20.9-22.5-5-6-12-15.5-15.6-21-3.5-5.5-9.1-14.9-12.2-21-3.2-6-7.8-15.9-10.2-22-2.4-6-5.8-15.7-7.5-21.5-1.7-5.8-3.8-13.6-4.6-17.5-0.9-3.9-2.3-11.3-3.2-16.5-0.9-5.5-1.8-18.5-2.1-31-0.4-16.3-0.1-24.9 1.1-35.5 0.9-7.7 2.8-19.2 4.2-25.5 1.4-6.3 4.3-16.7 6.4-23 2-6.3 5.9-16.4 8.5-22.5 2.6-6 7-15 9.8-20 2.7-4.9 8.1-13.7 12-19.5 3.8-5.8 9.7-13.9 13.1-18 3.3-4.1 11.7-13.1 18.6-20 6.9-6.9 17-15.9 22.5-20.1 5.5-4.2 13.1-9.7 17-12.1 3.8-2.5 11-6.8 16-9.6 4.9-2.8 14.2-7.3 20.5-10 6.3-2.7 16.4-6.5 22.5-8.5 6-1.9 16.6-4.7 23.5-6.2 6.9-1.4 17.2-3.2 23-3.9 5.8-0.8 19.3-1.4 30-1.5z"/><path class="b" d="m856 455h116v418h-365v-118l10.5 0.5 0.5 105.5h342v-395h-104v-5.5z"/><path fill-rule="evenodd" class="c" d="m711 290c119 0.5 130.8 0.6 133.5 2.2 1.6 0.9 4 2.7 5.1 4 1.2 1.2 3 3.9 4 5.8 1.8 3.4 1.9 10.5 2.2 202.5 0.2 109.5 0 201-0.4 203.5-0.4 2.7-1.6 5.4-5.3 9h35.9c27.9 0 36.1 0.3 36.4 1.3 0.2 0.6 0.1 7.1-0.2 14.2-0.5 10.9-0.9 13.5-2.7 15.9-1.1 1.6-3.3 3.9-7.6 7.1h-743.8l-2.8-2.1c-1.5-1.2-3.7-3.6-4.8-5.5-1.5-2.6-2.1-6.2-2.6-15.9-0.4-8.7-0.3-12.9 0.5-13.8 0.9-1 8.9-1.3 37.1-1.3 23.1 0 35.3-0.4 34-1-1.1-0.5-2.6-2-3.3-3.4-0.9-2-1.2-44.9-1.2-204.5 0-139.8 0.3-202.8 1.1-204.8 0.5-1.5 2.7-4.4 4.7-6.5 2-2.2 4.8-4.4 6.2-5 1.8-0.9 47-1.3 173-1.7 93.8-0.3 229.2-0.3 301 0zm-284.1 10.3c0 1.2 0.6 2.8 1.3 3.5 0.7 0.7 2.9 1.1 4.8 1 2.7-0.2 3.7-0.9 4.5-3 0.8-2.2 0.6-3.1-1-4.8-1.1-1.1-3-2.1-4.2-2-1.2 0-2.9 0.7-3.8 1.6-0.9 0.8-1.6 2.5-1.6 3.7zm-180.9 395.7l588.5-0.5 0.5-384.5h-589zm201 26c2 2 3.3 2 93 2h91.1c3.8-3.9 4.9-5.5 4.9-6 0-0.7-32.5-1-95.5-1-84.2 0-95.5 0.2-95.5 1.5 0 0.8 0.9 2.4 2 3.5zm379.6 10.2c-0.9 1.3-1.6 3.3-1.6 4.6 0 1.2 1.1 3.3 2.5 4.7 1.6 1.6 3.6 2.5 5.5 2.5 2 0 4-0.9 5.5-2.5 1.4-1.4 2.5-3.7 2.5-5.2 0.1-1.6-0.7-3.8-1.7-4.9-1-1.2-2.9-2.4-4.3-2.7-1.4-0.3-3.5-0.1-4.6 0.3-1.2 0.5-2.9 1.9-3.8 3.2zm25.1 0.1c-0.4 0.9-0.7 2.8-0.7 4.2 0 1.4 1.1 3.6 2.5 5 1.6 1.6 3.6 2.5 5.5 2.5 2 0 4-0.9 5.5-2.5 1.4-1.4 2.5-3.4 2.5-4.5 0-1.1-0.6-3.1-1.3-4.5-0.6-1.4-2.6-3-4.2-3.5-1.7-0.6-3-1-3-1 0 0.1-1.4 0.7-3 1.4-1.7 0.7-3.3 2-3.8 2.9zm27-1.4c-1.1 1-1.8 3-1.7 5.4 0 2.9 0.6 4.2 2.7 5.7 1.6 1.2 3.9 2 5.3 2 1.4 0 3.2-0.6 4.1-1.3 0.9-0.7 2.1-2.2 2.7-3.4 0.7-1.3 1.2-3 1.2-3.8 0-0.8-1-2.6-2.3-3.9-1.2-1.3-3.1-2.6-4.2-2.9-1.1-0.2-2.9-0.2-4 0-1.1 0.3-2.8 1.2-3.8 2.2zm-690.4 6.9c0.9 0.9 6.9 1.2 24.2 1.2 17.2 0 23.4-0.3 24.2-1.2 0.7-0.7 1-1.9 0.7-2.5-0.3-1-6.2-1.3-24.8-1.3-18.6 0-24.6 0.3-25 1.3-0.2 0.6 0.1 1.8 0.7 2.5zm92.7-256.8h63v16h-23v72h-18l-0.5-71.5-21.5-0.5zm305.1-0.1l48.4 0.6 7.7 3.8c4.6 2.1 9.8 5.7 12.6 8.5 2.6 2.6 6 6.7 7.5 9.2 1.4 2.5 3.3 7.2 4.2 10.5 0.8 3.3 1.5 8.5 1.5 11.5 0 3-0.6 7.8-1.3 10.5-0.8 2.8-2.7 7.4-4.3 10.4-1.6 2.9-5.4 7.7-8.4 10.5-3 2.8-8 6.3-11 7.8-3 1.4-7.9 3.1-10.8 3.7-2.8 0.6-14.4 1.1-46.2 1.1zm17.7 44.3l0.2 26.8c24.3-0.5 27.1-0.9 30.5-2.6 2.2-1.2 5.7-4.1 7.7-6.5 2.1-2.4 4.5-6.6 5.4-9.4 1.1-3.3 1.5-7 1.1-11-0.2-3.3-1.4-7.8-2.5-10-1.1-2.2-3.5-5.5-5.3-7.4-1.9-1.9-5.5-4.3-7.9-5.4-3.4-1.5-7.3-2.1-16-2.5-6.4-0.2-11.9 0-12.4 0.4-0.6 0.4-0.9 12.3-0.8 27.6zm-216.8-17.2v17h-5c-4.1 0-5.6 0.6-8.1 2.8-1.8 1.6-3.4 4.4-4 6.7-0.5 2.2-0.9 10.9-0.9 34.5h-17v-60h8.5c7.8 0 8.5 0.2 8.7 2.1 0.2 2 0.3 2 2.8 0.2 1.3-1 3.2-2.1 4-2.5 0.8-0.3 3.6-0.6 11-0.8zm34 0.1c3.7-0.1 7 0.6 10.2 2.2 4.3 2 4.7 2.1 4.7 0.5 0.1-1.5 1.2-1.8 17.1-1.8v60h-8.5c-7.4 0-8.5-0.2-8.6-1.7 0-1.6-0.4-1.6-4.7 0.5-3.4 1.6-6.5 2.3-10.7 2.2-3.8 0-7.7-0.8-10.5-2-2.5-1.2-6.3-3.7-8.4-5.8-2.1-2-5.2-6.4-6.7-9.7-2.3-4.7-2.9-7.4-2.9-12.5 0-3.5 0.4-8 0.9-10 0.5-1.9 2.5-5.7 4.3-8.4 1.8-2.7 4.8-6.2 6.8-7.8 1.9-1.5 5.3-3.4 7.5-4.2 2.2-0.8 6.4-1.5 9.5-1.5zm-10.3 24.2c-0.9 2.1-1.7 5.1-1.7 6.7 0 1.7 0.6 4.6 1.5 6.5 0.8 2 2.9 4.4 4.7 5.5 2.1 1.3 5 2 8 2 4 0 5.4-0.5 8.4-3.2 3.1-2.8 3.7-4 4.1-8.8 0.4-3.9 0.1-6.4-1.1-8.7-0.9-1.8-3.1-4.2-4.9-5.3-1.8-1.1-5-2-7.2-2-2.2 0-5.4 0.8-7 1.8-1.7 1-3.8 3.5-4.8 5.5zm86.8-24.2c4.6-0.1 7.2 0.5 11.4 2.7 3 1.5 6.5 4.1 7.9 5.7 1.4 1.7 3.7 5.5 5.1 8.5 2.4 5.3 2.6 6.4 3.1 44h-17v-16.5c0-12.1-0.4-17.5-1.5-20.2-0.9-2.3-2.8-4.5-4.8-5.7-2.5-1.4-4.4-1.7-8.2-1.3-3.7 0.5-5.8 1.4-7.8 3.4-1.5 1.6-3.2 4.6-3.7 6.8-0.6 2.2-1 10.7-1 33.5h-17v-60h8.5c8.1 0 8.5 0.1 8.4 2.3 0 2 0.1 2.1 1.7 0.7 1-0.8 3.4-2 5.3-2.7 2-0.6 6.3-1.2 9.6-1.2zm55.2 0c2.9-0.1 6.7 0.7 8.5 1.5 1.8 0.9 4.5 2.8 6 4.3 1.6 1.4 2.8 2.9 2.8 3.1 0 0.3-2.6 2.4-5.8 4.7-4.1 3-6.2 3.9-7.2 3.3-0.9-0.5-2.8-0.9-4.3-1-1.5 0-2.9 0.6-3.1 1.3-0.3 0.7-0.2 1.8 0.2 2.5 0.4 0.7 3.5 1.9 6.9 2.7 3.5 0.9 7.6 2.2 9.3 3 1.6 0.9 4.2 3.2 5.7 5.2 2.4 3.2 2.8 4.6 2.8 10.8 0 6-0.4 7.8-2.6 11.1-1.6 2.5-4.5 4.9-8 6.7-4.2 2.1-6.8 2.7-11.4 2.7-3.3 0-7.7-0.4-9.8-1-2-0.5-5.4-2.6-7.5-4.5-3.1-2.9-3.5-3.7-2.2-4.4 0.8-0.5 3.9-2.7 7-5 4.3-3.1 5.9-3.8 7.2-3 1 0.5 3.1 0.9 4.8 0.9 1.8 0 3.3-0.6 3.9-1.7 0.5-1.1 0.5-2.5 0-3.5-0.5-1-3.4-2.4-6.7-3.3-3.2-0.9-7.4-2.9-9.7-4.8-2.1-1.7-4.5-4.6-5.2-6.4-0.7-1.8-1.3-5.1-1.3-7.3 0-2.2 0.6-5.2 1.4-6.7 0.8-1.5 2.7-4 4.2-5.4 1.6-1.4 4.2-3.3 5.9-4.2 1.6-0.9 5.3-1.6 8.2-1.6zm154.3 0c3-0.1 7.9 0.7 11 1.6 4.2 1.3 6.9 3.2 11.6 7.8 3.6 3.5 6.5 7.3 6.9 9 0.4 1.7 0.3 3.3-0.2 3.5-0.6 0.3-7.8 5.4-16.2 11.3-8.3 5.9-15.1 11-15.1 11.2 0 0.3 2.1 0.5 4.7 0.6 3.5 0 5.8-0.7 8.5-2.5 2.2-1.5 4.3-2.3 5.1-1.8 0.7 0.4 3.6 2.5 6.5 4.7 2.8 2.2 5.2 4.3 5.2 4.5 0 0.3-1.6 2.1-3.7 4.1-2.1 1.9-6.5 4.6-9.8 5.8-4.9 1.9-7.6 2.2-14 2-5.6-0.3-9.4-1-12.5-2.6-2.5-1.2-6.5-4.1-9-6.5-2.4-2.3-5.6-6.7-6.9-9.8-1.9-4.1-2.5-7.1-2.5-12 0.1-3.5 0.9-8.5 1.8-11 0.9-2.4 3.2-6.3 4.9-8.5 1.8-2.2 5.1-5.1 7.2-6.4 2.2-1.4 5.5-3.1 7.5-3.7 1.9-0.7 5.9-1.3 9-1.3zm-11.5 23.9c-0.9 1.7-1.5 4.8-1.5 7v4c20.8-14.8 21.3-15.4 19.5-16.7-1.1-0.7-3.8-1.3-6-1.3-2.2 0-5.5 0.9-7.3 2-1.8 1.1-3.9 3.4-4.7 5zm44.3-23h18.7l7 14c3.8 7.7 7.2 14 7.5 14 0.2 0 3.2-6.2 12.5-27.5l8.3-0.2c4.5-0.2 8.2-0.2 8.2 0 0 0.1-6.5 13.6-14.5 30-8 16.3-14.9 29.8-15.3 29.8-0.4 0.1-4.5-7-9-15.7-4.6-8.7-11.7-22.3-15.9-30.1z"/></svg>