<svg version="1.2" xmlns="http://www.w3.org/2000/svg" viewBox="0 0 1080 1080" width="120" height="120"><style>.a{fill:#ff66c4}.b{fill:#202020}.c{fill:#5ce1e6}</style><path class="a" d="m361.5 108.5c19 0.2 26.6 0.7 36.5 2.4 6.9 1.2 15.9 3 20 4.1 4.1 1.1 13.6 4 21 6.5 7.4 2.5 18.7 7.1 25 10.1 6.3 3.1 16.4 8.5 22.5 12.2 6.1 3.6 15.5 10 21 14.2 5.5 4.1 15.3 12.7 21.9 19 6.5 6.3 15.6 16 20.1 21.5 4.6 5.5 11.8 15.2 16 21.5 4.3 6.3 11.2 18.7 15.5 27.5 4.3 8.8 9.7 21.3 11.9 27.8 2.3 6.4 4.1 12.4 4.1 13.2 0 1.2-1.6 1.5-16 1.5l-1.9-6.2c-1-3.5-3.3-9.9-5.1-14.3-1.7-4.4-5.8-13.2-9-19.5-3.3-6.3-8.9-16-12.6-21.5-3.6-5.5-9.9-14.1-13.9-19-4-4.9-11.7-13.3-17.1-18.5-5.5-5.3-13.3-12.3-17.4-15.6-4.1-3.3-10.4-8.1-14-10.6-3.6-2.5-11-7.1-16.5-10.4-5.5-3.2-15.9-8.4-23-11.5-7.1-3.1-18.4-7.3-25-9.3-6.6-2-17.9-4.8-25-6.1-7.1-1.3-19.5-2.8-27.5-3.3-8.9-0.6-20.3-0.7-29.5-0.1-8.3 0.5-20.4 1.8-27 3-6.6 1.1-15.8 3.1-20.5 4.4-4.7 1.3-13.4 4.1-19.5 6.3-6.1 2.1-16.4 6.5-23 9.8-6.6 3.2-17.8 9.8-25 14.5-7.2 4.8-17.3 12.3-22.5 16.6-5.2 4.4-13.5 12.2-18.3 17.4-4.9 5.2-12.6 14.3-17.2 20.4-4.6 6.1-10.7 14.8-13.5 19.5-2.8 4.7-7.6 13.7-10.7 20-3 6.3-7.9 18.7-10.8 27.5-2.9 8.8-6.3 20.7-7.4 26.5-1.1 5.8-2.6 14.6-3.2 19.5-0.6 4.9-1.2 17.3-1.2 27.5 0 10.2 0.5 22.8 1.2 28 0.7 5.2 2.4 14.9 3.8 21.5 1.3 6.6 4.5 18.1 6.9 25.5 2.4 7.4 7.8 20.3 11.9 28.5 4.1 8.3 10 18.8 13.1 23.5 3.1 4.7 8.2 11.9 11.3 16 3 4.1 11.6 13.6 19.1 21.1 7.4 7.5 17.8 16.8 32.5 28.1l0.5-120.8c0.4-97.8 0.5-82.7 0.5 79.6 0 110.3-0.2 168.9-1 60l-3.5-2.2c-1.9-1.1-8-5.5-13.5-9.7-5.5-4.1-13.6-10.9-17.9-15.1-4.3-4.1-10.5-10.2-13.7-13.5-3.2-3.3-9-10-13-15-4-4.9-10.4-13.7-14.1-19.5-3.8-5.8-9.5-15.7-12.8-22-3.2-6.3-7.9-16.7-10.3-23-2.4-6.3-5.6-15.6-7-20.5-1.5-4.9-3.3-12.1-4.2-16-0.8-3.9-2.2-11.3-3.1-16.5-0.9-5.4-1.8-18.6-2.1-30.5-0.4-13.2-0.1-25.3 0.6-32.5 0.7-6.3 2.1-16.2 3.2-22 1.2-5.8 3.6-15.7 5.4-22 1.8-6.3 5.3-16.4 7.6-22.5 2.4-6.1 6.6-15.5 9.4-21 2.8-5.5 7.8-14.3 11.1-19.5 3.3-5.2 9.3-14 13.4-19.5 4.1-5.4 13.6-16.1 21-23.6 7.4-7.4 16.7-16.1 20.5-19.1 3.8-3 11.3-8.4 16.5-12 5.2-3.6 14-9 19.5-12.1 5.5-3.1 14.3-7.5 19.5-9.8 5.2-2.3 14-5.7 19.5-7.6 5.5-1.9 14.3-4.5 19.5-5.8 5.2-1.3 15.1-3.3 22-4.4 6.9-1.1 14.3-2.2 16.5-2.4 2.2-0.3 14.8-0.3 28-0.2zm-132.8 606.7c0.1-0.1 0 0.3-0.2 0.8-0.3 0.6-12.7 0.9-69 0.5l34.5-0.5c19-0.3 34.6-0.6 34.7-0.8zm657.3 1.2c19 0 26.9 0.2 17.5 0.3-9.4 0.2-24.9 0.2-34.5 0-9.6-0.1-2-0.3 17-0.3zm-498 39.1c120.2 0 169.2 0.1 109 0.2-60.2 0.2-158.5 0.2-218.5 0-59.9-0.1-10.7-0.2 109.5-0.2zm376 0c80.6 0 113.4 0.1 73 0.2-40.4 0.2-106.3 0.2-146.5 0-40.1-0.1-7.1-0.2 73.5-0.2z"/><path fill-rule="evenodd" class="b" d="m539.5 290c224.9 0 298.9 0.3 301.5 1.1 1.9 0.7 4.7 2 6.3 3.1 1.5 1 3.9 3.9 8.2 11.3l0.3 198c0.2 108.9 0.1 200.4-0.3 203.3-0.3 3.3-1.2 5.9-2.5 7.2-1.1 1.1-1.7 2.2-1.2 2.5 0.4 0.3 16 0.5 34.7 0.5 26.2 0 34.3 0.3 35.2 1.2 0.9 0.9 1.1 4.6 0.7 12.8-0.3 6.3-1 12.9-1.4 14.5-0.5 1.6-2.5 4.5-8 9.5h-372c-328.7 0-372.3-0.2-375-1.5-1.7-0.8-3.9-3-5-4.8-1.4-2.3-2-5.1-2.1-9.7 0-3.6-0.4-9.2-0.8-12.5-0.5-3.3-0.4-6.8 0-7.8 0.8-1.6 3.5-1.7 35.2-1.7 18.9 0 34.7-0.3 35-0.8 0.4-0.4-0.3-1.8-1.4-3.2-2-2.5-2-3.9-1.9-204.8 0-132.4 0.3-203.1 1-204.7 0.6-1.4 2.5-4.1 4.2-6.2 1.8-2 5.1-4.4 7.3-5.4 3.8-1.8 16.3-1.9 302-1.9zm-112.5 10.2c-0.1 0.7 0.7 2.1 1.7 3 1 1 2.7 1.8 3.8 1.8 1.2 0 2.6-0.6 3.3-1.3 0.7-0.6 1.2-2.4 1.2-4 0-1.7-0.7-3.1-2-3.7-1.1-0.6-2.4-1-3-1-0.6 0-1.9 0.9-3 2-1.1 1.1-2 2.6-2 3.2zm-181 394.8h588v-384h-588zm200.9 26l1.9 2.5c138.5 0.4 179.7 0.3 180.9 0 1.3-0.3 3-1.2 3.8-2 0.8-0.8 1.5-2.2 1.5-3 0-1.3-11.2-1.5-95-1.5-52.3 0-95 0.3-95 0.7-0.1 0.5 0.8 1.9 1.9 3.3zm378.8 13.2c-0.4 1-0.2 2.9 0.3 4.3 0.5 1.4 2 3.2 3.2 4.1 1.5 1 3.3 1.3 5 1 1.6-0.3 3.7-1.5 4.8-2.6 1.1-1.1 2-3 2-4.3 0.1-1.2-0.8-3.4-2-5-1.6-2.1-2.8-2.7-5.9-2.7-2.4 0-4.4 0.6-5.3 1.7-0.8 1-1.8 2.6-2.1 3.5zm25.2 1.9c0.1 1.1 1.4 3.3 3.1 4.9 1.6 1.6 3.9 3 5.1 3 1.1 0 3.4-1.4 5-3 2.3-2.3 2.8-3.6 2.3-5.8-0.3-1.5-1.3-3.5-2.2-4.5-1.1-1.1-3.1-1.8-5.4-1.7-2.7 0-4.2 0.7-5.8 2.6-1.2 1.5-2.2 3.5-2.1 4.5zm25.9-0.3c0.1 1.2 0.5 2.9 0.9 3.8 0.5 0.9 2 2.3 3.5 3 1.6 0.8 3.8 1.1 5 0.8 1.3-0.4 3.1-1.4 4.1-2.3 1-0.9 1.8-3 1.7-4.9 0-1.8-0.8-4-2-5.2-1.2-1.2-3.3-2-5.3-2-2.2 0-4.2 0.8-5.7 2.3-1.3 1.3-2.3 3.3-2.2 4.5zm-689 0.9c0.2 1 5 1.3 24.7 1.3 22.8 0 24.5-0.1 24.2-1.8-0.2-1.6-2.2-1.7-23.8-2-12.9-0.1-23.9 0.1-24.4 0.4-0.5 0.4-0.8 1.3-0.7 2.1z"/><path class="c" d="m856 455h116v418h-365l-0.5-118h11.5v106h342v-395h-104v-5.5z"/><path class="a" d="m834.5 310.5l0.3 191.5c0.1 105.3 0 192.1-0.3 192.8-0.4 0.9-60.1 1.1-589 0.7l588.5-0.5 0.2-192.3zm-621.9 428c13.2 0 18.8 0.1 12.5 0.3-6.4 0.2-17.2 0.2-24 0-6.9-0.2-1.7-0.3 11.5-0.3z"/><path class="c" d="m212.5 733.4c12.1 0 16.8 0.2 10.5 0.3-6.3 0.2-16.2 0.2-22 0-5.8-0.1-0.6-0.3 11.5-0.3z"/><path class="a" d="m279.9 480h65.1l-0.5 17.5h-23.5l23-0.5v-16h-63v16l21.5 0.5v71l-0.5-70.5-21.5-0.5-0.3-8.8zm347.6 0.5l-41.5 0.6-0.5 88.5-0.3-43.5c-0.1-24 0-44.1 0.3-44.8 0.3-1 5.3-1.2 42-0.8zm-257.8 64c0.2 4.4 0.2 11.9 0 16.5-0.2 4.7-0.3 1.1-0.3-8 0-9 0.1-12.8 0.3-8.5zm112 0c0.2 4.4 0.2 11.9 0 16.5-0.2 4.7-0.3 1.1-0.3-8 0-9 0.1-12.8 0.3-8.5z"/><path fill-rule="evenodd" class="b" d="m281 481h63v16h-23v72h-18l-0.5-71.5-21.5-0.5zm305 0h21.8c18.7 0 22.6 0.2 28.2 1.9 3.6 1.1 9.4 3.9 12.9 6.3 3.5 2.4 7.6 5.9 9.1 7.8 1.5 1.9 3.8 5.5 5 8 1.3 2.5 2.9 6.8 3.6 9.5 0.8 2.8 1.4 7.3 1.4 10 0 2.8-0.7 7.7-1.6 11-0.8 3.3-2.7 8.2-4.2 10.9-1.5 2.6-5.1 7-7.9 9.7-2.9 2.7-8.1 6.2-11.5 7.9-3.5 1.6-8.8 3.4-11.8 4-3 0.6-14.4 1-45 1zm19 71c18.5 0 22.3-0.5 26.3-2 2.8-1 7-3.6 9.1-5.7 2.2-2.1 4.9-5.8 6-8.3 1.2-2.9 2-6.8 2-11 0.1-5.3-0.4-7.6-2.9-12.5-1.9-3.8-4.6-7.2-7.2-9.2-2.4-1.8-6-3.7-8-4.3-2.1-0.5-8.6-1-14.5-1h-10.8zm-218-44v17h-5c-3.9 0-5.7 0.6-8 2.5-1.7 1.4-3.4 4.2-4 6.3-0.5 2-1 10.8-1 35.2h-17l0.5-59.5 8.3-0.3c6.7-0.2 8.2 0.1 8.2 1.3 0 0.8 0.1 1.5 0.3 1.5 0.1 0 2.2-0.8 4.7-1.9 2.5-1.2 6.4-2.1 13-2.1zm33.3 0.1c2.6-0.1 7.1 0.8 10 1.9 2.8 1.1 5.3 2 5.5 2 0.1 0 0.2-0.7 0.2-1.5 0-1.2 1.5-1.5 16.5-1l0.5 59.5h-8.5c-6.9 0-8.5-0.3-8.5-1.5 0-0.8-0.1-1.5-0.2-1.5-0.2 0-2.5 0.9-5.3 2.1-4 1.7-6.3 2.1-11.5 1.7-3.7-0.3-8.2-1.4-10.5-2.6-2.2-1.1-5.6-3.8-7.6-5.9-2-2.1-4.7-5.8-6-8.3-2-3.8-2.4-6-2.4-14 0-8.7 0.3-10 3-14.9 1.6-3 5-7.1 7.5-9.3 2.5-2.1 6.3-4.5 8.5-5.3 2.2-0.7 6.1-1.4 8.8-1.4zm-8.8 23.1c-0.8 1.3-1.7 3.7-2.1 5.3-0.3 1.6-0.1 4.6 0.5 6.5 0.6 1.9 2.4 4.9 4.2 6.5 2.3 2.3 4.2 3.1 7.7 3.3 3.4 0.2 5.6-0.3 8-1.7 1.7-1.2 3.9-3.7 4.7-5.6 0.8-1.9 1.5-5 1.5-6.8 0-1.7-0.8-4.8-1.9-6.7-1-1.9-3.4-4.3-5.2-5.3-1.9-0.9-4.8-1.7-6.4-1.7-1.6 0-4.5 0.9-6.2 2-1.8 1.1-4 3-4.8 4.2zm85-23.2c2.8 0 7 0.7 9.5 1.5 2.5 0.8 6.4 3.3 8.8 5.5 2.3 2.2 5 5.7 6.1 7.7 1 2.1 2.4 6.2 3 9 0.6 2.9 1.1 12.5 1.1 37.3h-17v-17c0-14.1-0.3-17.6-1.7-20.6-1-2-3-4.3-4.5-5-1.6-0.8-4.6-1.4-6.8-1.4-2.2 0-5.4 0.8-7 1.8-1.7 0.9-4 3.5-5 5.7-1.7 3.5-2 6.2-2 36.5h-17l0.5-59.5 8.3-0.2c7-0.3 8.2-0.1 8.1 1.3-0.2 1.2 0.3 1.4 1.7 0.9 1-0.4 3.5-1.4 5.4-2.1 1.9-0.7 5.8-1.3 8.5-1.4zm56.5 0.1c2.5 0 6.3 0.8 8.5 1.8 2.2 1 5.1 3 6.5 4.5 2.5 2.6 2.5 2.7 0.5 4-1.1 0.8-3.8 2.8-6 4.4-3.7 2.7-4.2 2.9-7 1.7-1.9-0.9-3.6-1-4.7-0.4-1 0.5-1.8 1.6-1.8 2.4 0 0.8 0.8 1.9 1.8 2.3 0.9 0.5 4.2 1.4 7.2 2 3 0.6 7.4 2.5 9.8 4.2 2.8 2 4.7 4.4 5.8 7.3 1 2.6 1.4 6.1 1.2 9.2-0.2 3.1-1.4 6.6-3 9.2-1.7 2.7-4.3 5.1-7 6.4-2.4 1.2-7 2.5-10.3 2.7-3.6 0.3-7.9 0-10.9-0.9-2.7-0.8-6.5-2.8-12.1-7.6l7-5c6.9-5 7.1-5.1 10.3-3.7 2.8 1.2 3.5 1.2 5.7-0.1 1.4-0.8 2.5-2.1 2.5-2.7 0.1-0.7-0.7-2-1.7-2.9-1-0.9-4-2.2-6.8-2.8-2.9-0.6-6.7-2.5-8.9-4.4-2.2-1.7-4.5-4.7-5.3-6.4-0.7-1.8-1.3-5.1-1.3-7.3 0-2.2 0.6-5.2 1.4-6.7 0.8-1.6 2.7-4 4.3-5.5 1.5-1.5 4.4-3.4 6.3-4.2 1.9-0.8 5.5-1.5 8-1.5zm156 0.2c5.5 0.3 8.8 1 12.5 2.9 2.8 1.4 7 4.7 9.5 7.4 2.5 2.7 4.9 6.3 5.3 7.9 0.4 1.6 0.6 3 0.5 3.1-0.2 0-7.5 5.2-16.3 11.4-12.9 9.1-15.7 11.5-14.2 12.1 0.9 0.5 3.5 0.5 6-0.1 2.3-0.5 5.4-1.9 9.7-5l6.5 4.8c3.6 2.6 6.5 5 6.5 5.5 0 0.4-1.7 2.1-3.7 3.9-2.1 1.7-5.8 4.1-8.3 5.2-3.6 1.7-6.5 2.1-14 2.1-8.1 0-10.2-0.4-14.4-2.5-2.7-1.4-6.7-4.3-8.9-6.5-2.2-2.2-5.1-6.5-6.5-9.5-1.8-4.1-2.5-7.2-2.5-12 0.1-4.5 0.7-8.1 2.2-11.5 1.2-2.7 3.3-6.5 4.6-8.3 1.3-1.8 4.1-4.4 6.2-5.7 2.1-1.4 5.6-3.2 7.8-4 2.7-1 6.5-1.4 11.5-1.2zm-13.2 24.2c-1.1 1.7-1.7 4.4-1.6 6.3l0.3 3.3c20-14.3 20.4-14.7 18.3-15.8-1.3-0.7-3.7-1.2-5.4-1.3-1.7 0-4.6 1-6.4 2.3-1.9 1.2-4.2 3.6-5.2 5.2zm62.7-23.5l7 14c3.9 7.7 7.2 14 7.5 14 0.3 0 3.2-6.2 12.6-27.5l8.2-0.2c4.5-0.2 8.2-0.2 8.2 0 0 0.1-6.6 13.9-29.6 61.2l-15.7-29.8c-8.6-16.3-15.7-30.1-15.7-30.7 0-0.6 3.6-1 17.5-1z"/><path class="a" d="m625.5 497.4l-20.5 0.6-0.5 54.5-0.1-26.5c-0.1-14.6 0-27 0.2-27.7 0.3-1 3.1-1.2 20.9-0.9z"/></svg>